<?xml version="1.0" encoding="UTF-8"?>
<svg version="1.1" viewBox="0 0 1000 1000" width="1280" height="1280" xmlns="http://www.w3.org/2000/svg">
<path transform="translate(181,118)" d="m0 0h23l12 3 10 4 12 7 49 49 7 6v2l4 2 7 8 10 10 7 6 7 8 169 169 5-1 5-5 4-5h2l1-3 5-5h2l2-4h2l2-4h2l2-4h2l1-3 6-5 7-8 6-5 6-7 6-5 7-8h2l2-4h2l1-3 6-5 6-7 6-5 7-8 7-7h2l2-4h2l2-4h2l2-4 8-8 6-5 6-7 4-4h2l2-4 90-90h2l1-3h2l2-4 13-12 13-8 15-5 5-1h24l12 3 12 5 11 7 13 13 7 11 6 14 2 11v22l-3 12-5 12-7 11-14 15-201 201h-2l-2 4h-2l-2 4h-2l-2 4h-2l-2 4h-2l-2 4h-2l-2 4h-2l-2 4h-2l-2 4h-2l-2 4h-2v2h-2v2h-2v2l-3 2 2 4 245 245 8 13 4 10 3 14v17l-3 15-5 12-8 12-3 4h-2l-2 4-12 9-14 7-10 3-8 1h-16l-11-2-12-4-12-7-11-9-5-6-3-2v-2l-4-2-62-62v-2l-3-1-5-6-3-2v-2l-4-2v-2l-4-2-5-6-6-5-6-7-3-2v-2l-4-2-5-6-7-6-17-17v-2l-4-2-5-6-8-7-7-7-5-6-8-7-12-12v-2l-3-1-5-6-8-7-4-4v-2l-3-1-5-6-6-5-6-7-3-3-5 1-6 7h-2l-2 4-52 52h-2l-2 4-29 29h-2l-2 4-109 109h-2l-2 4h-2l-2 4-22 22-11 9-16 8-10 3-7 1h-17l-11-2-10-3-14-8-10-9-10-11-8-16-3-10-1-8v-17l3-14 5-12 7-11 9-9 5-6 7-6 5-6 7-6 5-6 7-6 6-7 8-7 4-5 6-5 6-7 7-6 5-6 7-6 5-6 7-6 5-6 7-6 5-6 7-6 5-6 7-6 5-6 7-6 5-6 7-6 6-7 6-5 6-7 6-5 6-7 7-6 5-6 7-6 5-6 7-6 5-6 7-6 5-5 3-5-5-5-3-2v-2l-4-2v-2l-4-2-5-6-8-7-12-12v-2l-4-2v-2l-4-2v-2l-4-2-37-37v-2l-4-2v-2l-4-2v-2l-4-2-19-19v-2l-4-2-12-12v-2l-4-2v-2l-4-2v-2l-4-2-105-105-9-11-8-16-3-10-1-5v-23l3-12 5-12 7-11 13-13 11-7 14-6z" fill="#010101"/>
</svg>
