<?xml version="1.0" encoding="UTF-8"?>
<svg version="1.1" viewBox="0 0 1933 2048" width="1280" height="1280" xmlns="http://www.w3.org/2000/svg">
<path transform="translate(21)" d="m0 0h1886l11 6 7 8 4 9 1 9v1391l-1 13-6 12-9 8-5 2-6 1h-601l10 14 14 19 9 12 14 19 15 20 14 19 15 20 28 38 13 17 10 14 10 13 28 38 16 21 13 18 16 21 8 11 28 38 10 13 4 5 5 5 8 11 9 14 11 15 14 19 12 16 5 11 1 3v11l-4 11-6 8-8 7-5 2h-3l4 7 13 18 11 17 4 10-2 10-4 7-6 5-9 3h-224l-9 6-5 3h-882l-11-8-79-1h-121l-8-2-8-7-4-8v-12l4-8 21-31 6-8 1-3-5-2-8-7-6-11-2-8 1-11 4-9 9-13 9-12 14-19 14-21 9-14 10-9 13-18 13-17 11-15 14-19 16-21 10-14 16-21 10-14 13-17 8-11 12-16 14-19 12-16 28-38 16-21 13-18 13-17 28-38 9-12 2-3h-603l-11-4-7-6-7-12v-1416l9-13 9-6z" fill="#FDFDFD"/>
<path transform="translate(21)" d="m0 0h1886l11 6 7 8 4 9 1 9v1391l-1 13-6 12-9 8-5 2-6 1h-601l10 14 14 19 9 12 14 19 15 20 14 19 15 20 28 38 13 17 10 14 10 13 28 38 16 21 13 18 16 21 8 11 28 38 10 13 4 5 5 5 8 11 9 14 11 15 14 19 12 16 5 11 1 3v11l-4 11-6 8-8 7-5 2h-3l4 7 13 18 11 17 4 10-2 10-4 7-6 5-9 3h-224l-9 6-5 3h-882l-11-8-79-1h-121l-8-2-8-7-4-8v-12l4-8 21-31 6-8 1-3-5-2-8-7-6-11-2-8 1-11 4-9 9-13 9-12 14-19 14-21 9-14 10-9 13-18 13-17 11-15 14-19 16-21 10-14 16-21 10-14 13-17 8-11 12-16 14-19 12-16 28-38 16-21 13-18 13-17 28-38 9-12 2-3h-603l-11-4-7-6-7-12v-1416l9-13 9-6zm10 30-1 1v1398l1648 1 220-1 1-1v-1397l-1-1z" fill="#323D46"/>
<path transform="translate(740,1522)" d="m0 0 6 2 10 7 22 13 19 9 25 10 24 8 1 2 2 24 5 10 15 11 34 24 18 13 16 11 11 8 1 5v337l-1 1h-423l1-5 17-39 11-25 16-37 13-30 14-32 11-25 10-23 26-60 17-39 18-41 10-23 13-30 15-34 11-26 11-25z" fill="#FDFDFD"/>
<path transform="translate(1154,1523)" d="m0 0 4 1 12 27 11 25 13 30 17 39 13 30 20 46 15 34 12 28 18 41 13 30 18 41 12 28 18 41 13 30 8 19-1 4h-391l-1-44v-236l1-83 8-7 34-24 14-10 8-6 4-8 1-4 1-21 2-3 32-11 28-12 20-11z" fill="#FDFDFD"/>
<path transform="translate(1281,773)" d="m0 0h22l18 2 21 5 20 8 19 10 14 10 12 11 14 14 11 15 10 18 7 16 6 20 3 17 1 10v22l-3 22-6 22-8 19-9 16-13 17-12 13-14 12-10 7-19 11-20 8-24 6-14 2h-27l-21-3-15-4-17-6-16-8-17-11-10-8-10-9-7-7-12-16-8-13-8-16-6-16-5-21-2-14v-26l3-22 5-19 8-19 9-17 10-14 11-13 9-9 17-13 13-8 21-10 18-6 21-4z" fill="#323D46"/>
<path transform="translate(626,773)" d="m0 0h21l18 2 21 5 16 6 16 8 12 7 12 9 10 9 12 12 10 13 9 15 9 19 7 21 4 22 1 23-2 21-4 18-7 21-8 17-10 15-10 13-11 12-11 9-8 6-13 8-15 8-19 7-21 5-14 2h-27l-25-4-20-6-16-7-19-11-13-10-10-9-11-11-9-12-9-14-8-16-7-19-5-23-1-7v-33l3-20 6-21 7-16 10-18 10-14 11-12 10-10 16-12 15-9 17-8 19-6 20-4z" fill="#323D46"/>
<path transform="translate(1164,1459)" d="m0 0h99l7 8 10 14 14 19 24 32 28 38 16 21 10 14 16 21 10 14 16 21 28 38 12 16 14 19 15 20 28 38 12 16 13 17v3h-212l-5-8-14-32-16-37-17-39-18-41-26-60-14-32-15-35-15-34-15-35-5-12z" fill="#FCFDFD"/>
<path transform="translate(667,1459)" d="m0 0h67l-2 6-18 42-23 53-11 25-14 32-16 37-18 41-9 21-17 39-20 46-12 27h-180l1-4 8-11 14-19 10-13 13-18 10-13 13-18 13-17 12-16 8-11 14-19 13-17 8-11 14-19 9-12 14-19 15-20 14-19 16-21 8-11 14-19 12-16 13-18z" fill="#FCFCFC"/>
<path transform="translate(1351,1889)" d="m0 0h232l8 10 13 18 7 10 1 5-9 1h-233l-4-5-16-37z" fill="#F9FAFA"/>
<path transform="translate(1383,1963)" d="m0 0h196l4 5 12 18 13 18 1 4h-207l-8-16-11-25z" fill="#E8D8C1"/>
<path transform="translate(408,1888)" d="m0 0h26l112 1-2 9-13 29-3 6h-205l-5-2 1-5 9-12 13-18 6-7z" fill="#F9FAFA"/>
<path transform="translate(345,1963)" d="m0 0h168l1 3-11 25-6 15-2 2h-181l5-9 15-22 9-13z" fill="#E7D8C1"/>
<path transform="translate(783,1459)" d="m0 0h86l24 13 18 10 22 12 14 8 1 1 1 86-5-1-11-10-14-11-2-3 2-7v-13l-4-11-6-9-8-7-10-5-23-7-28-12-22-11-36-21z" fill="#FAFBFA"/>
<path transform="translate(1332,1847)" d="m0 0h236l9 13 4 7v3h-239l-3-5-7-16z" fill="#ABB7BB"/>
<path transform="translate(361,1847)" d="m0 0h203l-1 6-7 16-2 1h-206l1-5 11-17z" fill="#ABB7BB"/>
<path transform="translate(1029,1459)" d="m0 0h86l-5 5-28 16-23 12-23 10-32 11-11 6-8 9-4 6-2 1-1-40-1-7 9-6 23-12 14-8z" fill="#FAFAFA"/>
<path transform="translate(757,1482)" d="m0 0 5 1 9 6 17 10 16 9 16 8 24 11 20 8 18 6 7 6-1 10v12l3 10 6 8 10 9 13 10 13 11 11 9 4 4 1 5h-4l-32-22-20-14-14-11-1-1-2-27-4-8-7-6-36-12-26-11-23-12-23-14-3-2v-6z" fill="#ABB7BB"/>
<path transform="translate(1137,1482)" d="m0 0h3l4 9v3l-19 12-17 10-27 13-24 9-22 7-8 4-5 7-2 13-1 15-2 5-19 14-16 11h-3v-9l13-11 8-7 5-6 4-10v-13l-1-10 5-6 10-4 20-7 24-10 26-13 23-13 20-12z" fill="#ACB7BB"/>
<path transform="translate(909,1866)" d="m0 0h13l9 4 7 7 3 5 1 4v13l-5 10-7 6-7 3h-14l-8-4-8-9-3-8v-10l3-8 9-10z" fill="#323D46"/>
<path transform="translate(910,1782)" d="m0 0h12l8 3 6 5 5 8 1 4v13l-5 10-7 6-7 3h-13l-10-5-7-8-3-8v-10l4-10 7-7z" fill="#323D46"/>
<path transform="translate(910,1950)" d="m0 0h12l9 4 5 4 5 8 1 4v13l-4 8-5 5-5 4-6 2h-13l-9-5-7-8-3-8v-10l4-9 7-8z" fill="#323D46"/>
<path transform="translate(910,1698)" d="m0 0h12l9 4 7 7 3 5 1 4v13l-5 10-8 6-7 3h-12l-10-5-7-8-3-8v-10l4-10 7-7z" fill="#323D46"/>
<path transform="translate(934,1459)" d="m0 0h29v2l-13 7-5-1-11-6z" fill="#F3F3F1"/>
<path transform="translate(915,1717)" d="m0 0 6 2 2 4-1 5-5 3-5-1-2-3v-7z" fill="#E2E3E1"/>
<path transform="translate(915,1969)" d="m0 0 5 1 2 2 1 7-3 3-6 1-4-4v-7z" fill="#E9EAE8"/>
<path transform="translate(915,1885)" d="m0 0 6 2 2 4-1 5-2 2-6 1-4-4v-7z" fill="#E5E5E4"/>
<path transform="translate(913,1802)" d="m0 0h7l3 5-1 5-2 2-6 1-4-4v-7z" fill="#E5E7E5"/>
<path transform="translate(343,1967)" d="m0 0v3l-2 6-3 3h-2l-3 6h-2l1-5 8-11z" fill="#F0EFED"/>
<path transform="translate(934,1459)" d="m0 0h26l-2 2h-19v2l-5-2z" fill="#CECCC4"/>
<path transform="translate(933,1624)" d="m0 0 5 1 8 5v4l-5-2-8-7z" fill="#E2D6C3"/>
<path transform="translate(504,1965)" d="m0 0h9l-1 5-1 3h-2v-3h-3z" fill="#F4F4F3"/>
<path transform="translate(1398 2e3)" d="m0 0 4 2 2 2 1 4-4 1-3-6z" fill="#F2F2F0"/>
<path transform="translate(1383,1963)" d="m0 0 6 2v2l2 1h-2v2l-3 1v-2h-2z" fill="#F2F3F2"/>
<path transform="translate(1075,1517)" d="m0 0 4 1-12 6h-2v-2z" fill="#D0CBBF"/>
</svg>
